<?xml version="1.0" standalone="no"?>
<!DOCTYPE svg PUBLIC "-//W3C//DTD SVG 20010904//EN"
 "http://www.w3.org/TR/2001/REC-SVG-20010904/DTD/svg10.dtd">
<svg version="1.0" xmlns="http://www.w3.org/2000/svg"
 width="223.000000pt" height="226.000000pt" viewBox="0 0 223.000000 226.000000"
 preserveAspectRatio="xMidYMid meet">

<g transform="translate(0.000000,226.000000) scale(0.100000,-0.100000)"
fill="#000000" stroke="none">
<path d="M925 2135 c-388 -71 -700 -364 -806 -756 -26 -95 -37 -331 -20 -421
86 -449 386 -756 831 -848 80 -16 281 -14 380 5 477 91 830 520 830 1010 0
494 -351 917 -838 1010 -93 18 -281 18 -377 0z m335 -9 c114 -19 141 -26 134
-37 -3 -5 2 -6 10 -3 17 6 100 -22 179 -62 77 -39 178 -114 170 -126 -3 -6 -1
-8 5 -4 15 9 136 -116 194 -203 246 -363 233 -821 -34 -1183 -95 -130 -216
-225 -381 -303 -145 -68 -244 -89 -422 -89 -167 -1 -254 14 -377 65 -150 62
-220 110 -349 238 -134 135 -204 257 -259 451 -38 138 -37 359 3 515 3 11 8
32 12 47 4 16 11 25 16 22 5 -3 6 1 3 9 -8 21 48 138 111 232 212 315 615 491
985 431z"/>
<path d="M1132 2051 c-20 -12 -26 -82 -9 -105 16 -22 57 -14 57 11 0 14 -2 14
-19 -1 -16 -15 -19 -15 -31 -1 -10 12 -11 26 -4 52 11 46 31 53 46 16 9 -22
12 -24 15 -10 8 34 -26 57 -55 38z"/>
<path d="M937 2043 c-13 -12 -7 -79 9 -101 19 -28 57 -26 62 3 4 20 4 20 -11
0 -20 -26 -42 -8 -52 42 -8 46 7 63 35 38 21 -19 29 -8 8 13 -13 13 -41 16
-51 5z"/>
<path d="M1226 1992 c-8 -65 -2 -95 10 -48 10 40 44 35 45 -6 1 -31 1 -32 9
-8 4 14 8 45 8 70 0 34 -2 39 -7 20 -4 -15 -15 -26 -28 -28 -18 -3 -22 3 -25
30 -3 25 -5 18 -12 -30z"/>
<path d="M858 2035 c-3 -3 4 -31 15 -63 23 -64 25 -67 32 -60 3 3 -5 33 -18
67 -13 34 -26 59 -29 56z"/>
<path d="M761 2003 c-2 -23 42 -123 55 -123 19 0 44 11 44 20 0 4 -10 5 -23 3
-20 -4 -27 3 -49 54 -14 32 -27 53 -27 46z"/>
<path d="M1351 1953 c-17 -35 -27 -63 -22 -63 5 0 11 7 15 15 6 18 36 9 36
-11 0 -8 5 -14 10 -14 12 0 12 86 1 115 -7 17 -13 10 -40 -42z m25 -20 c-11
-11 -17 4 -9 23 7 18 8 18 11 1 2 -10 1 -21 -2 -24z"/>
<path d="M1442 1920 c-12 -33 -17 -60 -12 -60 5 0 12 9 15 20 11 35 35 24 36
-17 l1 -38 7 35 c4 19 12 44 19 56 9 16 8 26 -4 42 -25 36 -41 26 -62 -38z
m56 17 c2 -12 -3 -17 -17 -17 -23 0 -24 1 -15 25 8 19 28 15 32 -8z"/>
<path d="M663 1945 c-3 -10 4 -37 15 -61 17 -34 27 -44 46 -44 35 0 42 32 18
78 -21 42 -67 57 -79 27z m51 -11 c19 -18 31 -59 22 -73 -16 -25 -56 25 -56
69 0 24 13 26 34 4z"/>
<path d="M1552 1899 c-28 -64 -34 -89 -25 -89 10 0 56 121 48 128 -2 3 -13
-15 -23 -39z"/>
<path d="M603 1887 c18 -28 18 -29 0 -42 -16 -12 -21 -10 -40 13 -37 44 -26
15 14 -38 38 -51 67 -70 37 -25 -8 13 -13 29 -9 35 10 16 33 12 45 -10 6 -11
15 -20 21 -20 11 0 -46 84 -70 103 -12 9 -11 5 2 -16z"/>
<path d="M1599 1884 c-11 -13 -10 -21 5 -49 10 -18 15 -38 11 -44 -9 -16 -25
-4 -25 20 0 10 -4 19 -10 19 -15 0 -12 -46 5 -60 8 -6 23 -9 35 -5 25 8 27 45
4 81 -18 27 -14 40 12 30 9 -3 14 -12 10 -21 -3 -8 -1 -15 5 -15 16 0 22 29 9
45 -16 20 -44 19 -61 -1z"/>
<path d="M975 1860 c-18 -5 1 -6 45 -3 41 3 77 7 79 9 8 7 -94 2 -124 -6z"/>
<path d="M1153 1863 c9 -2 25 -2 35 0 9 3 1 5 -18 5 -19 0 -27 -2 -17 -5z"/>
<path d="M1260 1850 c14 -4 34 -8 45 -8 l20 -1 -20 9 c-11 5 -31 8 -45 8 l-25
0 25 -8z"/>
<path d="M469 1814 c-14 -15 -17 -23 -8 -19 10 4 30 -10 57 -39 23 -25 42 -42
42 -38 0 4 -19 27 -41 51 -38 42 -40 46 -23 58 10 7 13 13 8 13 -6 0 -21 -11
-35 -26z"/>
<path d="M888 1833 c7 -3 16 -2 19 1 4 3 -2 6 -13 5 -11 0 -14 -3 -6 -6z"/>
<path d="M1345 1830 c27 -12 43 -12 25 0 -8 5 -22 9 -30 9 -10 0 -8 -3 5 -9z"/>
<path d="M840 1820 c-8 -5 -10 -10 -5 -10 6 0 17 5 25 10 8 5 11 10 5 10 -5 0
-17 -5 -25 -10z"/>
<path d="M1675 1780 c-29 -30 -43 -50 -34 -50 8 0 21 6 28 13 10 10 11 7 6
-15 -7 -29 3 -36 23 -16 17 17 26 3 13 -20 -6 -11 -7 -22 -4 -26 4 -3 22 21
41 55 19 33 32 62 29 65 -2 2 -16 -5 -31 -17 -33 -26 -39 -22 -25 20 6 18 9
34 7 36 -2 3 -26 -18 -53 -45z"/>
<path d="M1480 1769 c91 -50 152 -97 144 -111 -4 -6 -2 -8 3 -5 6 4 18 -2 28
-13 10 -12 13 -20 7 -20 -7 0 -12 5 -12 10 0 22 -20 8 -49 -36 -17 -25 -31
-47 -31 -50 0 -2 -18 -34 -40 -71 -22 -36 -38 -68 -36 -70 2 -3 18 5 34 17 33
25 76 82 107 145 11 22 24 43 30 47 12 9 47 -22 41 -37 -2 -7 4 -24 14 -40 11
-16 19 -22 22 -14 6 18 50 -60 44 -80 -3 -9 2 -27 10 -41 9 -14 13 -17 10 -7
-16 48 -14 48 9 2 25 -50 36 -97 15 -65 -7 11 -8 5 -3 -20 12 -64 23 -89 18
-40 -4 38 -4 41 6 20 5 -14 8 -47 5 -75 -3 -36 -3 -42 3 -20 13 48 12 -171 -1
-235 -9 -45 -12 -51 -20 -35 -6 15 -7 14 -3 -8 8 -39 -3 -75 -17 -56 -7 10 -8
8 -3 -8 3 -13 1 -31 -5 -40 -9 -15 -10 -14 -4 7 7 29 2 26 -16 -9 -8 -15 -8
-21 -1 -17 15 10 14 0 -4 -34 -17 -33 -28 -40 -19 -12 5 14 4 14 -4 2 -6 -8
-9 -18 -6 -22 7 -11 -15 -50 -25 -43 -5 2 -15 -3 -22 -13 -13 -15 -12 -16 4
-3 9 7 17 9 17 4 0 -12 -42 -52 -53 -52 -5 1 -12 -3 -15 -7 -4 -4 -1 -4 6 0
19 11 14 -9 -6 -27 -22 -20 -36 -22 -26 -5 4 7 -4 3 -17 -8 -56 -50 -185 -124
-257 -148 -110 -36 -198 -47 -300 -35 -123 14 -165 26 -272 77 -81 39 -108 59
-186 136 -76 77 -98 106 -138 187 -30 62 -54 128 -66 185 -12 59 -19 77 -19
54 -1 -20 8 -69 20 -110 72 -260 256 -445 524 -526 83 -26 282 -26 380 0 82
22 190 73 260 124 27 20 46 31 41 24 -11 -19 -122 -91 -174 -114 -25 -11 -73
-29 -106 -39 -34 -9 -53 -18 -43 -18 58 -3 209 63 292 127 194 148 305 367
305 605 0 132 -22 233 -75 342 -74 153 -189 272 -323 335 -88 42 -90 37 -2
-11z m258 -235 c-4 -3 -12 5 -18 18 -12 22 -12 22 6 6 10 -10 15 -20 12 -24z"/>
<path d="M398 1723 c7 -3 16 -2 19 1 4 3 -2 6 -13 5 -11 0 -14 -3 -6 -6z"/>
<path d="M456 1706 c15 -12 16 -17 7 -27 -10 -10 -18 -8 -40 12 -24 22 -23 19
7 -23 34 -49 48 -63 31 -29 -13 24 17 54 45 46 10 -4 3 3 -16 14 -41 23 -63
28 -34 7z"/>
<path d="M1775 1677 l-50 -32 30 -5 c26 -5 30 -10 27 -33 -5 -45 12 -31 46 38
38 77 28 83 -53 32z m39 -21 c-3 -9 -10 -16 -15 -16 -14 0 -11 28 4 33 16 6
19 3 11 -17z"/>
<path d="M1896 1616 c5 -19 -2 -28 -40 -52 -44 -28 -57 -44 -35 -44 5 0 27 11
47 25 41 28 58 31 65 13 2 -7 7 -10 11 -6 8 7 -35 88 -47 88 -4 0 -5 -11 -1
-24z"/>
<path d="M408 1604 c6 -12 8 -25 4 -30 -4 -5 0 -3 8 4 12 10 12 15 -4 30 -18
16 -18 16 -8 -4z"/>
<path d="M1903 1492 c-29 -14 -53 -32 -53 -39 0 -9 20 -3 60 19 33 18 60 36
60 41 0 11 -11 8 -67 -21z"/>
<path d="M335 1451 c3 -5 -1 -12 -7 -14 -7 -3 -3 -6 10 -6 25 -1 30 14 6 23
-8 3 -13 2 -9 -3z"/>
<path d="M1913 1425 c-39 -17 -51 -49 -27 -76 20 -23 44 -25 44 -4 0 8 -7 15
-15 15 -8 0 -15 7 -15 15 0 17 56 49 70 40 14 -9 12 -33 -2 -38 -7 -2 -9 -8
-5 -13 11 -11 41 9 45 30 9 42 -36 57 -95 31z"/>
<path d="M1440 1335 l-23 -25 22 0 c18 0 20 -2 9 -14 -7 -8 -16 -12 -20 -10
-7 5 -43 -47 -67 -96 -11 -23 -10 -22 15 5 l27 30 -7 -39 c-8 -41 -53 -106
-73 -106 -7 0 -13 4 -13 9 0 5 -9 7 -20 4 -15 -4 -20 0 -20 15 0 25 -45 62
-74 62 -12 0 -35 13 -50 29 -26 27 -30 28 -58 17 -60 -25 -80 -87 -56 -168 10
-34 9 -40 -8 -53 -12 -9 -31 -12 -50 -9 -21 4 -34 1 -44 -10 -11 -14 -10 -16
5 -10 10 4 21 1 26 -7 6 -10 9 -10 9 -1 0 20 16 14 49 -20 34 -35 40 -71 16
-102 -20 -27 -19 -43 5 -49 28 -7 25 -32 -10 -84 -16 -24 -30 -45 -30 -47 0
-4 119 2 208 10 44 4 62 10 62 20 0 8 7 14 15 14 9 0 12 6 8 15 -3 9 3 25 13
36 22 24 5 51 -19 30 -12 -9 -16 -8 -21 5 -10 27 -7 59 9 80 8 10 15 33 15 49
0 33 32 61 63 56 23 -3 62 82 84 185 10 48 26 90 40 107 27 33 27 34 11 70
-16 33 -19 33 -48 2z m-212 -191 c18 -12 22 -24 20 -51 -2 -20 -10 -41 -20
-47 -23 -14 -72 4 -76 29 -4 19 -3 19 17 -2 24 -26 41 -29 59 -11 35 35 -15
99 -53 68 -18 -15 -21 0 -3 18 16 16 29 15 56 -4z m-108 -48 c0 -2 -3 -11 -6
-20 -9 -23 -24 -20 -24 4 0 11 7 20 15 20 8 0 15 -2 15 -4z m-3 -78 c-3 -8 -6
-5 -6 6 -1 11 2 17 5 13 3 -3 4 -12 1 -19z"/>
<path d="M308 1323 c7 -3 16 -2 19 1 4 3 -2 6 -13 5 -11 0 -14 -3 -6 -6z"/>
<path d="M281 1261 c13 -11 26 -17 28 -15 5 5 -30 33 -43 34 -4 0 2 -9 15 -19z"/>
<path d="M1938 1213 c-27 -7 -22 -23 6 -23 37 0 40 -17 6 -35 -16 -8 -30 -20
-30 -26 0 -6 7 -6 21 1 11 6 32 11 47 10 15 -1 32 -2 39 -1 18 2 35 39 28 61
-5 16 -15 20 -53 19 -26 -1 -55 -3 -64 -6z m92 -38 c0 -8 -7 -15 -15 -15 -8 0
-15 7 -15 15 0 8 7 15 15 15 8 0 15 -7 15 -15z"/>
<path d="M270 1200 c-8 -5 -10 -10 -5 -10 6 0 17 5 25 10 8 5 11 10 5 10 -5 0
-17 -5 -25 -10z"/>
<path d="M210 1182 c19 -9 37 -18 40 -20 9 -6 -25 -22 -47 -22 -13 0 -23 -4
-23 -9 0 -9 119 -35 127 -27 3 2 -11 8 -31 11 -40 8 -49 25 -13 25 45 0 49 16
7 29 -22 6 -38 16 -35 21 4 6 -8 10 -27 9 l-33 0 35 -17z"/>
<path d="M1917 1083 c-10 -10 -8 -63 2 -63 5 0 12 11 15 25 9 36 36 32 36 -5
0 -39 12 -38 27 1 13 35 33 31 33 -7 0 -13 5 -24 10 -24 6 0 10 18 10 40 l0
40 -63 0 c-35 0 -67 -3 -70 -7z"/>
<path d="M210 1050 l-45 -6 35 -5 c29 -3 35 -8 35 -29 0 -21 -6 -26 -35 -31
-25 -5 -15 -7 38 -8 42 0 72 3 72 9 0 6 -13 10 -30 10 -25 0 -30 4 -30 25 0
20 5 25 25 25 14 0 25 5 25 10 0 11 -19 11 -90 0z"/>
<path d="M1852 1030 c0 -14 2 -19 5 -12 2 6 2 18 0 25 -3 6 -5 1 -5 -13z"/>
<path d="M1841 964 c0 -11 3 -14 6 -6 3 7 2 16 -1 19 -3 4 -6 -2 -5 -13z"/>
<path d="M1910 961 c0 -4 15 -13 33 -18 l32 -10 -42 -12 c-24 -6 -43 -15 -43
-20 0 -7 106 -51 124 -51 19 0 1 20 -28 31 -34 12 -40 29 -11 29 8 0 26 5 42
11 l28 11 -50 18 c-56 21 -85 24 -85 11z"/>
<path d="M260 931 c0 -6 9 -11 19 -11 24 0 34 -25 16 -40 -20 -17 -81 -24 -90
-10 -4 6 1 20 11 31 20 22 12 38 -11 19 -19 -16 -19 -54 0 -70 22 -18 86 -5
108 21 15 19 16 25 4 43 -15 22 -57 35 -57 17z"/>
<path d="M1864 825 c-8 -19 -14 -39 -14 -45 0 -19 17 -10 28 15 6 14 19 25 27
25 13 0 15 -8 10 -37 -6 -35 -5 -37 9 -19 8 10 17 23 19 29 8 25 28 -6 22 -34
-4 -16 -4 -29 0 -29 7 0 38 71 33 75 -2 1 -29 14 -61 28 l-58 26 -15 -34z"/>
<path d="M310 785 c-39 -27 -66 -31 -73 -12 -2 6 -7 9 -11 6 -9 -8 25 -79 37
-79 5 0 7 8 5 18 -4 14 7 25 43 46 27 15 49 31 49 37 0 14 -12 10 -50 -16z"/>
<path d="M332 691 c-45 -53 -54 -78 -24 -66 9 3 41 11 70 17 51 11 71 28 32
28 -22 0 -46 35 -30 45 5 3 10 10 10 16 0 20 -19 7 -58 -40z m38 -21 c0 -5 -7
-10 -16 -10 -8 0 -12 5 -9 10 3 6 10 10 16 10 5 0 9 -4 9 -10z"/>
<path d="M1830 726 c0 -9 4 -16 9 -16 5 0 11 -6 14 -13 4 -10 -2 -13 -19 -9
-13 2 -24 0 -24 -6 0 -12 68 -95 81 -100 15 -6 10 25 -6 38 -24 20 -17 30 15
24 36 -8 38 1 8 33 l-21 23 36 0 c46 0 49 15 5 23 -18 3 -48 9 -65 13 -27 5
-33 3 -33 -10z"/>
<path d="M1793 630 c6 -24 -17 -51 -37 -44 -8 3 -17 1 -20 -4 -6 -9 85 -52
110 -52 20 0 17 16 -13 71 -29 50 -50 65 -40 29z m27 -56 c0 -8 -5 -12 -10 -9
-6 4 -8 11 -5 16 9 14 15 11 15 -7z"/>
<path d="M388 592 c-27 -8 -48 -20 -48 -25 0 -9 28 -5 67 10 17 7 17 6 0 -17
-40 -57 -34 -72 18 -47 41 19 43 16 14 -24 -11 -16 -16 -29 -10 -29 14 0 81
92 75 102 -3 4 -21 1 -40 -7 l-35 -15 21 35 c20 33 20 35 3 34 -10 0 -39 -8
-65 -17z"/>
<path d="M1406 572 c-2 -4 -1 -14 5 -22 7 -12 9 -10 9 8 0 23 -5 28 -14 14z"/>
<path d="M1442 560 c0 -14 2 -19 5 -12 2 6 2 18 0 25 -3 6 -5 1 -5 -13z"/>
<path d="M1011 563 c0 -4 4 -17 9 -28 8 -19 9 -19 9 2 1 12 -3 25 -9 28 -5 3
-10 3 -9 -2z"/>
<path d="M1095 560 c3 -5 8 -10 11 -10 2 0 4 5 4 10 0 6 -5 10 -11 10 -5 0 -7
-4 -4 -10z"/>
<path d="M1154 561 c4 -6 2 -18 -4 -26 -10 -12 -10 -15 2 -15 16 0 21 37 6 46
-7 4 -8 2 -4 -5z"/>
<path d="M1182 545 c0 -16 2 -22 5 -12 2 9 2 23 0 30 -3 6 -5 -1 -5 -18z"/>
<path d="M1235 545 c0 -14 3 -25 8 -25 4 0 7 11 7 25 0 14 -3 25 -7 25 -5 0
-8 -11 -8 -25z"/>
<path d="M1270 544 c0 -14 4 -23 9 -20 5 3 7 15 4 26 -7 28 -13 25 -13 -6z"/>
<path d="M860 537 c0 -15 4 -27 9 -27 6 0 8 10 6 21 -6 33 -15 36 -15 6z"/>
<path d="M930 551 c0 -5 -3 -16 -6 -25 -4 -11 -1 -16 12 -15 11 0 14 3 7 6 -9
3 -10 10 -3 24 7 13 7 19 0 19 -5 0 -10 -4 -10 -9z"/>
<path d="M1693 531 c-22 -18 -31 -41 -16 -41 3 0 14 7 23 15 16 14 21 12 57
-26 22 -23 43 -37 46 -32 5 8 -72 103 -83 103 -3 -1 -15 -9 -27 -19z"/>
<path d="M1522 402 c-32 -16 -39 -39 -9 -34 10 2 26 -15 42 -43 15 -25 31 -45
36 -45 9 0 4 16 -22 69 -11 22 -14 40 -8 46 11 11 12 25 2 24 -5 0 -23 -8 -41
-17z"/>
<path d="M750 319 c-32 -62 -33 -82 -5 -59 13 10 15 9 15 -9 0 -26 18 -27 36
-3 12 15 13 14 14 -10 0 -47 18 -31 38 35 23 74 13 96 -23 52 l-24 -30 -1 37
c0 58 -17 54 -50 -13z"/>
<path d="M1223 363 c9 -2 23 -2 30 0 6 3 -1 5 -18 5 -16 0 -22 -2 -12 -5z"/>
<path d="M1465 338 l7 -33 -26 24 c-14 14 -29 21 -32 18 -9 -8 24 -115 38
-123 16 -10 19 2 9 30 -13 31 -7 32 26 6 15 -11 28 -18 31 -15 3 2 -5 31 -18
65 -24 64 -46 82 -35 28z"/>
<path d="M1098 353 c18 -2 45 -2 60 0 15 2 0 4 -33 4 -33 0 -45 -2 -27 -4z"/>
<path d="M880 308 c-38 -62 -19 -127 34 -114 17 4 26 17 36 51 24 85 -28 131
-70 63z m45 -30 c-4 -13 -9 -31 -11 -40 -6 -22 -24 -24 -24 -4 0 8 4 26 10 40
12 32 34 35 25 4z"/>
<path d="M1345 333 c-11 -3 -24 -9 -28 -13 -9 -8 11 -118 23 -125 12 -7 64 11
68 24 3 10 -3 11 -27 6 -27 -6 -31 -4 -31 14 0 13 8 21 23 23 32 4 27 22 -7
23 -35 0 -47 22 -15 27 12 2 24 9 27 16 4 12 1 13 -33 5z"/>
<path d="M977 258 c5 -73 9 -88 21 -88 9 0 62 116 62 134 0 15 -32 -17 -43
-44 -10 -24 -11 -24 -16 14 -3 22 -11 41 -18 43 -8 3 -10 -14 -6 -59z"/>
<path d="M1087 304 c-4 -4 -7 -36 -7 -71 l0 -63 40 0 c22 0 40 5 40 10 0 6
-11 10 -25 10 -16 0 -25 6 -25 15 0 9 9 15 25 15 16 0 25 6 25 15 0 9 -9 15
-25 15 -35 0 -33 28 3 32 15 2 27 8 27 13 0 12 -67 19 -78 9z"/>
<path d="M1197 303 c-10 -10 -8 -133 2 -133 5 0 12 10 16 23 l8 22 4 -22 c5
-28 33 -31 33 -4 0 11 5 23 10 26 6 3 10 -3 10 -14 0 -12 5 -21 10 -21 13 0
13 17 -2 79 -12 52 -30 63 -36 23 -4 -30 -18 -28 -26 3 -6 25 -16 31 -29 18z"/>
</g>
</svg>
